<?xml version="1.0" encoding="utf-8"?>
<!-- Generator: Adobe Illustrator 19.2.0, SVG Export Plug-In . SVG Version: 6.00 Build 0)  -->
<svg version="1.1" id="Layer_1" xmlns="http://www.w3.org/2000/svg" xmlns:xlink="http://www.w3.org/1999/xlink" x="0px" y="0px"
	 viewBox="0 0 376.1 127.7" style="enable-background:new 0 0 376.1 127.7;" xml:space="preserve">
<style type="text/css">
	.st0{fill:#282930;}
</style>
<path class="st0" d="M146.9,28.2h-8.4V0.6h8.4c9.8,0,13.7,5.8,13.7,13.5S156.9,28.2,146.9,28.2z M146.9,4.9h-3.3v19h3.3
	c5.8,0,8.5-3.3,8.5-9.8C155.4,7.9,152.7,4.9,146.9,4.9z"/>
<path class="st0" d="M166.3,28.2V0.6h5.1v27.7h-5.1V28.2z"/>
<path class="st0" d="M189.7,28.8c-8.8,0-12.1-5.6-12.1-14.4c0-8,2.8-14.4,12.1-14.4c6.9,0,10.3,4.2,10.7,9.1h-4.6
	c-0.3-2.6-2.3-4.7-6.1-4.7c-5.5,0-6.9,3.6-6.9,10c0,6,1.3,10.1,6.9,10.1c2,0,4.3-0.7,5.5-1.5v-4.8c0-0.3,0.1-0.5,0.2-0.8h-5.3
	l-1.2-4.3h11.4v11.6C198.1,26.6,194.6,28.8,189.7,28.8z"/>
<path class="st0" d="M207.2,28.2V0.6h5.1v27.7h-5.1V28.2z"/>
<path class="st0" d="M231.1,4.9v23.4h-5.2V4.9H218V0.6h21v4.3H231.1z"/>
<path class="st0" d="M258.6,28.2l-2.4-7h-9.7l-2.4,7h-5.3l10-27.7h5.3l10,27.7H258.6z M251.9,8.7c-0.3-0.7-0.5-1.7-0.6-2.2
	C251.2,7,251,8,250.8,8.7L248,17h6.8L251.9,8.7z"/>
<path class="st0" d="M269.1,28.2V0.6h5.1v23h11.1v4.7L269.1,28.2L269.1,28.2z"/>
<path class="st0" d="M148.7,78.3c-5.7,0-8.5-2.7-10.2-5.5l4.3-2.2c1.2,1.8,3,3.3,6,3.3c4.3,0,5.6-1.8,5.6-4.3c0-1.8-0.8-3.1-3.3-3.5
	l-5.6-0.9c-4-0.7-6.6-2.8-6.6-7.8c0-4,2.8-7.9,10.1-7.9c5.7,0,8.2,2.1,10,5l-4.3,2.2c-1.2-1.8-2.8-2.8-5.7-2.8c-3.7,0-5,1.4-5,3.5
	c0,2,0.7,2.6,2.6,2.9l5.5,0.9c4.1,0.7,7.5,2.8,7.5,8.4C159.6,74.6,156.3,78.3,148.7,78.3z"/>
<path class="st0" d="M176,78.2c-9.6,0-11.7-6.6-11.7-14.7c0-7.4,2.2-14.1,11.7-14.1c9.6,0,11.9,6.8,11.9,14.1
	C187.8,71.7,185.5,78.2,176,78.2z M176,53.8c-5.1,0-6.5,3.2-6.5,9.7c0,7.3,1.5,10.4,6.5,10.4c5.1,0,6.6-3.1,6.6-10.4
	C182.6,57,181.1,53.8,176,53.8z"/>
<path class="st0" d="M204.9,78.3c-9.6,0-11.8-6.9-11.8-14.5c0-8.5,2.9-14.4,11.8-14.4c6.9,0,10.1,4.1,10.4,9.1h-4.9
	c-0.4-3-1.8-4.7-5.6-4.7c-5.5,0-6.6,3.6-6.6,10c0,5.8,0.9,10.2,6.6,10.2c2.7,0,5-1,6.8-4.5l3.8,2.3C214,75.4,210.9,78.3,204.9,78.3z
	"/>
<path class="st0" d="M221.2,77.7V50h5.1v27.7L221.2,77.7z"/>
<path class="st0" d="M251.3,77.7l-2.4-7h-9.7l-2.4,7h-5.3l10-27.7h5.3l10,27.7H251.3z M244.6,58.1c-0.3-0.7-0.5-1.7-0.6-2.2
	c-0.1,0.5-0.3,1.5-0.5,2.2l-2.8,8.3h6.8L244.6,58.1z"/>
<path class="st0" d="M261.7,77.7V50h5.1v23H278v4.7H261.7L261.7,77.7z"/>
<path class="st0" d="M138.5,127.1V99.4h5.1v27.7H138.5z"/>
<path class="st0" d="M169.1,127.1l-13.6-18.5c0.1,0.4,0.2,0.8,0.2,1.1v17.4h-5.1V99.4h4.4l13.6,18.6c-0.2-0.5-0.2-1.1-0.2-1.7V99.4
	h5.1v27.7H169.1L169.1,127.1z"/>
<path class="st0" d="M198.9,127.1l-13.6-18.5c0.1,0.4,0.1,0.8,0.1,1.1v17.4h-5.1V99.4h4.4l13.6,18.6c-0.2-0.5-0.2-1.1-0.2-1.7V99.4
	h5.1v27.7H198.9L198.9,127.1z"/>
<path class="st0" d="M221.1,127.7c-9.6,0-11.7-6.6-11.7-14.7c0-7.4,2.2-14.1,11.7-14.1c9.6,0,11.9,6.8,11.9,14.1
	C233,121.1,230.7,127.7,221.1,127.7z M221.1,103.2c-5.1,0-6.5,3.2-6.5,9.7c0,7.3,1.5,10.4,6.5,10.4c5.1,0,6.6-3.1,6.6-10.4
	C227.8,106.4,226.3,103.2,221.1,103.2z"/>
<path class="st0" d="M251.4,127.1h-5.3l-10-27.7h5.4l6.7,19.6c0.3,0.7,0.5,1.7,0.6,2.2c0.1-0.5,0.3-1.5,0.5-2.2l6.7-19.6h5.3
	L251.4,127.1z"/>
<path class="st0" d="M280.4,127.1l-2.4-7h-9.7l-2.4,7h-5.3l10-27.7h5.3l10,27.7H280.4z M273.7,107.5c-0.3-0.7-0.5-1.7-0.6-2.2
	c-0.1,0.5-0.3,1.5-0.5,2.2l-2.8,8.3h6.8L273.7,107.5z"/>
<path class="st0" d="M298.6,103.7v23.4h-5.2v-23.4h-7.9v-4.3h21v4.3H298.6z"/>
<path class="st0" d="M312.2,127.1V99.4h5.1v27.7H312.2z"/>
<path class="st0" d="M335.2,127.7c-9.6,0-11.7-6.6-11.7-14.7c0-7.4,2.2-14.1,11.7-14.1c9.6,0,11.9,6.8,11.9,14.1
	C347,121.1,344.7,127.7,335.2,127.7z M335.2,103.2c-5.1,0-6.5,3.2-6.5,9.7c0,7.3,1.5,10.4,6.5,10.4c5.1,0,6.6-3.1,6.6-10.4
	C341.8,106.4,340.3,103.2,335.2,103.2z"/>
<path class="st0" d="M371.7,127.1l-13.6-18.5c0.1,0.4,0.2,0.8,0.2,1.1v17.4h-5.1V99.4h4.4l13.6,18.6c-0.2-0.5-0.2-1.1-0.2-1.7V99.4
	h5.1v27.7H371.7L371.7,127.1z"/>
<polygon class="st0" points="80.2,37.8 122.4,37.8 90.8,3.1 "/>
<polygon class="st0" points="36,88.5 10,80.4 0,28.8 "/>
<polygon class="st0" points="12.7,83 58.8,122.6 37.8,90.8 "/>
<polygon class="st0" points="77.5,38.9 38.5,88.5 0,25.4 "/>
<polygon class="st0" points="42.6,85.9 78.6,40.4 82.2,57 "/>
<polygon class="st0" points="40.6,91.9 62.7,126 88.8,114.7 "/>
<polygon class="st0" points="40.1,90.1 82.2,58.7 90,113.2 "/>
<polygon class="st0" points="80.2,39.5 83.8,55.8 121.2,39.5 "/>
<polygon class="st0" points="84.3,60.4 90.9,110.5 97.7,81 "/>
<polygon class="st0" points="78.5,37.2 90,2 2.3,23.9 "/>
<polygon class="st0" points="84.1,57.7 98.4,79.5 122.2,40.4 "/>
</svg>
