<?xml version="1.0" encoding="utf-8"?>
<!-- Generator: Adobe Illustrator 21.0.0, SVG Export Plug-In . SVG Version: 6.00 Build 0)  -->
<svg version="1.1" id="Layer_1" xmlns="http://www.w3.org/2000/svg" xmlns:xlink="http://www.w3.org/1999/xlink" x="0px" y="0px"
	 viewBox="0 0 44.7 29.8" style="enable-background:new 0 0 44.7 29.8;" xml:space="preserve">
<style type="text/css">
	.st0{fill:#D1D1D1;}
</style>
<title>svg2759</title>
<desc>Created with Sketch.</desc>
<path class="st0" d="M0,0v29.8h44.7V0H0z M30.4,9.6l0.4-1.1l0.4,1.1h1.2l-1,0.7l0.4,1.1l-0.9-0.7l-0.9,0.7l0.4-1.1l-1-0.7L30.4,9.6z
	 M11,14.5l1.2,0l0.4-1.1l0.4,1.1h1.2l-1,0.7l0.4,1.1l-0.9-0.7l-0.9,0.7l0.4-1.1L11,14.5z M14.8,21.2l-0.9-0.7l-0.9,0.7l0.4-1.1
	l-1-0.7l1.2,0l0.4-1.1l0.4,1.1h1.2l-1,0.7L14.8,21.2z M14.5,10.3l0.4,1.1l-0.9-0.7l-0.9,0.7l0.4-1.1l-1-0.7l1.2,0l0.4-1.1l0.4,1.1
	h1.2L14.5,10.3z M17.1,6l0.4-1.1L17.8,6H19l-1,0.7l0.4,1.1l-0.9-0.7l-0.9,0.7l0.4-1.1l-1-0.7L17.1,6z M18.4,24.7L17.5,24l-0.9,0.7
	l0.4-1.1l-1-0.7l1.2,0l0.4-1.1l0.4,1.1H19l-1,0.7L18.4,24.7z M22,4.7l0.4-1.1l0.4,1.1h1.2l-1,0.7l0.4,1.1l-0.9-0.7l-0.9,0.7l0.4-1.1
	l-1-0.7L22,4.7z M23.3,26l-0.9-0.7L21.4,26l0.4-1.1l-1-0.7l1.2,0l0.4-1.1l0.4,1.1h1.2l-1,0.7L23.3,26z M28.2,24.7L27.2,24l-0.9,0.7
	l0.4-1.1l-1-0.7l1.2,0l0.4-1.1l0.4,1.1h1.2l-1,0.7L28.2,24.7z M27.8,6.7l0.4,1.1l-0.9-0.7l-0.9,0.7l0.4-1.1l-1-0.7l1.2,0l0.4-1.1
	L27.6,6h1.2L27.8,6.7z M31.8,21.2l-0.9-0.7l-0.9,0.7l0.4-1.1l-1-0.7l1.2,0l0.4-1.1l0.4,1.1h1.2l-1,0.7L31.8,21.2z M33,16.3l-0.9-0.7
	l-0.9,0.7l0.4-1.1l-1-0.7l1.2,0l0.4-1.1l0.4,1.1h1.2l-1,0.7L33,16.3z"/>
</svg>
