<?xml version="1.0" encoding="utf-8"?>
<!-- Generator: Adobe Illustrator 19.2.0, SVG Export Plug-In . SVG Version: 6.00 Build 0)  -->
<svg version="1.1" id="Layer_1" xmlns="http://www.w3.org/2000/svg" xmlns:xlink="http://www.w3.org/1999/xlink" x="0px" y="0px"
	 viewBox="0 0 44 52" style="enable-background:new 0 0 44 52;" xml:space="preserve">
<style type="text/css">
	.st0{fill:#282930;}
	.st1{filter:url(#Adobe_OpacityMaskFilter);}
	.st2{fill:#FFFFFF;}
	.st3{mask:url(#mask-2);fill:#282930;}
</style>
<title>Page 1</title>
<desc>Created with Sketch.</desc>
<path id="Fill-1" class="st0" d="M9.5,26.8c0-1.1-0.9-2-2-2c-1.1,0-2,0.9-2,2s0.9,2,2,2C8.6,28.8,9.5,27.9,9.5,26.8"/>
<path id="Fill-3" class="st0" d="M32.7,26.5c-1.1,0-2,0.9-2,2c0,1.1,0.9,2,2,2c1.1,0,2-0.9,2-2C34.7,27.4,33.8,26.5,32.7,26.5"/>
<defs>
	<filter id="Adobe_OpacityMaskFilter" filterUnits="userSpaceOnUse" x="2" y="42.1" width="24.7" height="9.8">
		<feColorMatrix  type="matrix" values="1 0 0 0 0  0 1 0 0 0  0 0 1 0 0  0 0 0 1 0"/>
	</filter>
</defs>
<mask maskUnits="userSpaceOnUse" x="2" y="42.1" width="24.7" height="9.8" id="mask-2">
	<g class="st1">
		<polygon id="path-1" class="st2" points="2,51.9 26.7,51.9 26.7,42.1 2,42.1 		"/>
	</g>
</mask>
<path id="Fill-5" class="st3" d="M24.3,47c-2.2,1-4.5,1.5-6.9,1.5c-4.9,0-9.4-2.1-12.4-5.8c-0.6-0.7-1.6-0.8-2.4-0.2
	c-0.7,0.6-0.8,1.6-0.2,2.4c3.6,4.5,9.1,7.1,15,7.1c2.9,0,5.7-0.6,8.3-1.8c0.8-0.4,1.2-1.4,0.8-2.2C26.1,46.9,25.1,46.6,24.3,47"/>
<path id="Fill-8" class="st0" d="M43,3.6c-0.8-0.4-1.8-0.1-2.3,0.7c-1.1,2.2-1.9,3.5-3.4,3.6c-1.5,0.1-2.5-1.1-3.9-3
	c-1.5-2.1-3.4-4.7-6.9-4.4C23,0.8,21.6,3.7,20.4,6c-1.1,2.2-1.9,3.5-3.4,3.6c-1.5,0.1-2.5-1.1-3.9-3c-1.5-2.1-3.4-4.7-6.9-4.4
	C2.7,2.4,1.3,5.3,0.1,7.6l0,0C0,7.8,0,8,0,8.2c0,0.9,0.8,1.7,1.7,1.7c0.6,0,1.1-0.3,1.4-0.8l0,0c0-0.1,0.1-0.1,0.1-0.2
	c0,0,0-0.1,0-0.1c1-2,1.8-3.2,3.2-3.3C8,5.4,9,6.6,10.4,8.5c1.4,2,3.2,4.4,6.4,4.4c0.2,0,0.3,0,0.5,0c3.5-0.3,4.9-3.1,6.1-5.4
	c1.1-2.2,1.9-3.5,3.4-3.6c1.5-0.1,2.5,1.1,3.9,3c1.5,2.1,3.4,4.7,6.9,4.4c3.5-0.3,4.9-3.1,6.1-5.4C44.1,5,43.8,4,43,3.6"/>
</svg>
