<?xml version="1.0" encoding="utf-8"?>
<!-- Generator: Adobe Illustrator 21.0.0, SVG Export Plug-In . SVG Version: 6.00 Build 0)  -->
<svg version="1.1" id="Layer_1" xmlns="http://www.w3.org/2000/svg" xmlns:xlink="http://www.w3.org/1999/xlink" x="0px" y="0px"
	 viewBox="0 0 44.7 19" style="enable-background:new 0 0 44.7 19;" xml:space="preserve">
<style type="text/css">
	.st0{fill:#D1D1D1;}
</style>
<title>svg2759</title>
<desc>Created with Sketch.</desc>
<g>
	<path class="st0" d="M2,11.1L2,11.1c0.6-0.6,1.1-0.7,1.8-0.7c1.5,0,2.1,0.9,2.1,2.3v3.4h-2v-2.7C3.9,12.9,4,12,3,12
		c-0.8,0-1,0.6-1,1.3v2.9H0v-5.5h2V11.1z"/>
	<path class="st0" d="M10.8,12.6c-0.1-0.5-0.6-0.9-1.1-0.9c-0.6,0-1,0.4-1.1,0.9H10.8z M12.5,13.8h-4c0,0.6,0.5,1.2,1.2,1.2
		c0.6,0,1-0.3,1.1-0.6h1.6c-0.3,1.3-1.5,2-2.7,2c-1.8,0-3.1-1-3.1-3c0-1.8,1.2-3,2.9-3c1.8,0,2.9,1.3,2.9,3.1L12.5,13.8L12.5,13.8z"
		/>
	<path class="st0" d="M17,12.2c-0.3-0.2-0.7-0.4-1-0.4c-0.2,0-0.6,0-0.7,0.3c0,0.4,0.7,0.5,1,0.5c1,0.2,1.8,0.8,1.7,1.9
		c-0.2,1.4-1.6,1.9-2.8,1.8c-0.8-0.1-1.5-0.4-2.2-0.9l0.9-1.3c0.4,0.3,1,0.7,1.5,0.7c0.2,0,0.6,0,0.7-0.4c0-0.4-0.7-0.5-1.3-0.7
		c-0.6-0.2-1.4-0.7-1.3-1.7c0.2-1.3,1.4-1.8,2.6-1.7c0.6,0.1,1.2,0.2,1.8,0.6L17,12.2z"/>
	<polygon class="st0" points="21.3,16.1 19.3,16.1 19.3,12.2 18.5,12.2 18.5,10.6 19.3,10.6 19.3,8.9 21.3,8.9 21.3,10.6 22.2,10.6 
		22.2,12.2 21.3,12.2 	"/>
	<path class="st0" d="M24.3,13.4c0,0.7,0.5,1.3,1.3,1.3c0.8,0,1.3-0.6,1.3-1.3c0-0.7-0.5-1.3-1.3-1.3S24.3,12.6,24.3,13.4
		 M28.8,16.1h-1.9v-0.4h0c-0.4,0.4-1,0.6-1.6,0.6c-1.6,0-2.7-1.2-2.7-3s1.1-3,2.7-3c0.6,0,1.2,0.2,1.6,0.5v-0.4h1.9L28.8,16.1
		L28.8,16.1z"/>
	<path class="st0" d="M32.4,16.4c0.6,0,1,0.5,1,1c0,0.6-0.5,1-1,1s-1-0.5-1-1C31.3,16.8,31.8,16.4,32.4,16.4"/>
	<path class="st0" d="M43.4,6.1c0.7,0,1.3,0.6,1.3,1.3s-0.6,1.3-1.3,1.3c-0.7,0-1.3-0.6-1.3-1.3C42.1,6.6,42.7,6.1,43.4,6.1"/>
	<path class="st0" d="M40.3,0.4c1,0,1.8,0.8,1.8,1.8S41.3,4,40.3,4s-1.8-0.8-1.8-1.8S39.4,0.4,40.3,0.4"/>
	<path class="st0" d="M33.4,11.2c0,2.8,2.3,5.1,5.1,5.1V6.1C35.7,6.1,33.4,8.4,33.4,11.2"/>
	<path class="st0" d="M42.6,14.8c0-2-1.6-3.6-3.6-3.6v7.2C41,18.4,42.6,16.8,42.6,14.8"/>
</g>
</svg>
