<?xml version="1.0" encoding="UTF-8" standalone="no"?>
<svg viewBox="0 0 92 57" version="1.1" xmlns="http://www.w3.org/2000/svg" xmlns:xlink="http://www.w3.org/1999/xlink">
    <g id="Home" stroke="none" stroke-width="1" fill="none" fill-rule="evenodd">
        <g id="lessonLearned" transform="translate(-594.000000, -149.000000)" stroke="#282930" stroke-width="2">
            <g id="Page-1" transform="translate(640.000000, 177.500000) scale(1, -1) translate(-640.000000, -177.500000) translate(595.000000, 150.000000)">
                <path d="M13.149,27.4711831 C11.1920769,30.8618169 6.87669231,32.0129437 3.50976923,30.0430141 C0.142076923,28.0723099 -1.001,23.7257606 0.955923077,20.3351268 C2.91284615,16.944493 7.22823077,15.7933662 10.5951538,17.7640704 C13.9628462,19.734 15.1059231,24.0805493 13.149,27.4711831 L13.149,27.4711831 Z" id="Stroke-1"></path>
                <path d="M88.4714615,10.67 C86.5145385,14.0606338 82.1991538,15.2117606 78.8322308,13.241831 C75.4645385,11.2711268 74.3214615,6.92457746 76.2783846,3.53394366 C78.2353077,0.143309859 82.5506923,-1.0078169 85.9176154,0.962887324 C89.2853077,2.9328169 90.4283846,7.2793662 88.4714615,10.67 L88.4714615,10.67 Z" id="Stroke-3"></path>
                <path d="M56.9575385,50.1871127 C55.3075385,53.7396479 51.1098462,55.2719014 47.5829231,53.6102817 C44.0552308,51.948662 42.5336923,47.7214085 44.1836923,44.1696479 C45.8336923,40.6171127 50.0306154,39.0848592 53.5583077,40.7464789 C57.086,42.4080986 58.6075385,46.6345775 56.9575385,50.1871127 L56.9575385,50.1871127 Z" id="Stroke-5"></path>
                <path d="M13.2783846,27.2077254 L44.3568462,43.8293451" id="Stroke-7" stroke-dasharray="4.75,4.75"></path>
                <path d="M75.5041538,8.61377465 L13.9349231,22.347507" id="Stroke-9" stroke-dasharray="4.75,4.75"></path>
                <path d="M54.9747692,41.6139296 L77.9832308,12.6211831" id="Stroke-11" stroke-dasharray="4.75,4.75"></path>
            </g>
        </g>
    </g>
</svg>
