<?xml version="1.0" encoding="utf-8"?>
<!-- Generator: Adobe Illustrator 19.2.0, SVG Export Plug-In . SVG Version: 6.00 Build 0)  -->
<svg version="1.1" id="Layer_1" xmlns="http://www.w3.org/2000/svg" xmlns:xlink="http://www.w3.org/1999/xlink" x="0px" y="0px"
	 viewBox="0 0 61 52" style="enable-background:new 0 0 61 52;" xml:space="preserve">
<style type="text/css">
	.st0{fill:#282930;}
</style>
<title>Page 1</title>
<desc>Created with Sketch.</desc>
<g id="Home">
	<g id="About" transform="translate(-610.000000, -553.000000)">
		<g id="Group" transform="translate(57.000000, 553.000000)">
		</g>
	</g>
</g>
<path id="Fill-1" class="st0" d="M7.5,28.7c-2.3,0-4.2-1.9-4.2-4.2c0-2.3,1.9-4.2,4.2-4.2s4.2,1.9,4.2,4.2
	C11.6,26.8,9.7,28.7,7.5,28.7 M14.9,24.5c0-4.1-3.3-7.5-7.5-7.5S0,20.4,0,24.5C0,28.7,3.3,32,7.5,32S14.9,28.7,14.9,24.5"/>
<path id="Fill-3" class="st0" d="M53,28.7c-2.3,0-4.2-1.9-4.2-4.2c0-2.3,1.9-4.2,4.2-4.2s4.2,1.9,4.2,4.2
	C57.2,26.8,55.3,28.7,53,28.7 M53,17c-4.1,0-7.5,3.4-7.5,7.5c0,4.1,3.3,7.5,7.5,7.5s7.5-3.4,7.5-7.5C60.5,20.4,57.1,17,53,17"/>
<path id="Fill-5" class="st0" d="M10.3,13.3c0.8,0.5,1.8,0.3,2.3-0.5c3.9-6,10.5-9.5,17.6-9.5c6,0,11.6,2.6,15.6,6.9h-6
	c-0.9,0-1.6,0.7-1.6,1.7c0,0.9,0.7,1.7,1.6,1.7h10.8L52,4.7c0.1-0.9-0.5-1.8-1.4-1.9c-0.9-0.2-1.7,0.5-1.9,1.4l-0.6,3.8
	c-4.6-5-11.1-7.9-18-7.9C22,0,14.4,4.1,9.9,11C9.4,11.8,9.6,12.8,10.3,13.3"/>
<path id="Fill-7" class="st0" d="M51.3,38.6C50.6,38,49.5,38.3,49,39c-3.9,6-10.5,9.5-17.6,9.5c-6,0-11.6-2.6-15.6-6.9h6
	c0.9,0,1.6-0.7,1.6-1.7c0-0.9-0.7-1.7-1.6-1.7H11l-1.4,8.9c-0.1,0.9,0.5,1.8,1.4,1.9c0.1,0,0.2,0,0.3,0c0.8,0,1.5-0.6,1.6-1.4
	l0.6-3.8c4.6,5,11.1,7.9,18,7.9c8.2,0,15.8-4.1,20.4-11C52.3,40.1,52.1,39.1,51.3,38.6"/>
</svg>
