<?xml version="1.0" encoding="utf-8"?>
<!-- Generator: Adobe Illustrator 21.0.0, SVG Export Plug-In . SVG Version: 6.00 Build 0)  -->
<svg version="1.1" id="Layer_1" xmlns="http://www.w3.org/2000/svg" xmlns:xlink="http://www.w3.org/1999/xlink" x="0px" y="0px"
	 viewBox="0 0 224.7 224.7" style="enable-background:new 0 0 224.7 224.7;" xml:space="preserve">
<style type="text/css">
	.st2{fill:#282930;}
</style>
<g>
	<path class="st2" d="M186.3,222.3c-9.6,0-18.7-3.7-25.5-10.6l-44.1-44.1c-5.6-5.6-7.7-13.9-5.5-21.5l1.4-4.8L41.6,69.6
		c-0.4-0.4-0.8-0.7-1.3-0.8l-6.1-2.1c-5.6-2-10.5-5.8-13.8-10.7L4.6,32.5c-1.8-2.7-1.5-6.4,0.9-8.7L25,4.3c2.3-2.3,6-2.7,8.7-0.9
		l23.4,15.6c5,3.3,8.8,8.2,10.7,13.8l2.2,6.2l0.8,1.3l71.2,71.9l4.5-1.3c7.5-2.1,15.6,0,21.2,5.6l44.2,44.2
		c6.8,6.8,10.6,15.9,10.6,25.5C222.4,206.2,206.2,222.3,186.3,222.3z M19.2,29.5l12.5,18.7c1.7,2.5,4.1,4.4,6.9,5.4l6.1,2.1
		c2.5,0.9,4.7,2.3,6.6,4.1l74,74.8c1.8,1.8,2.4,4.4,1.7,6.8l-2.6,8.7c-0.8,2.8-0.1,5.8,2,7.9l44.1,44.1c4.2,4.2,9.8,6.5,15.8,6.5
		c12.3,0,22.3-10,22.3-22.3c0-6-2.3-11.6-6.5-15.8l-44.2-44.2c-2-2-5-2.8-7.8-2l-8.4,2.3c-2.4,0.7-5,0-6.7-1.8L61,50.1
		c-1.8-1.8-3.2-4-4-6.4l-2.2-6.2c-1-2.8-2.9-5.3-5.4-6.9L30.7,18C30.7,18,19.2,29.5,19.2,29.5z M28.6,222.3
		c-14.5,0-26.3-11.8-26.3-26.3c0-7,2.7-13.6,7.7-18.6l56.2-56.2c2.7-2.7,7-2.7,9.7,0c2.7,2.7,2.7,7,0,9.7l-56.2,56.2
		c-2.3,2.3-3.7,5.6-3.7,8.9c0,6.9,5.6,12.6,12.6,12.6c3.4,0,6.5-1.3,8.9-3.7l53-53c2.7-2.7,7-2.7,9.7,0c2.7,2.7,2.7,7,0,9.7l-53,53
		C42.3,219.6,35.7,222.3,28.6,222.3z M171.1,105.4c-5.7,0-11.5-1-17.1-2.9c-3.6-1.2-5.5-5.2-4.2-8.7c1.2-3.6,5.1-5.5,8.7-4.2
		c13.9,4.8,28.8,1.4,39.1-8.9c6.3-6.3,10.1-14.4,10.9-23.2l-3.6-3.6l-19.5,19.5c-1.3,1.3-3,2-4.9,2s-3.6-0.7-4.9-2L151.4,49
		c-2.7-2.7-2.7-7,0-9.7l19.4-19.5l-3.6-3.6c-8.8,0.8-16.9,4.6-23.2,10.9c-10.3,10.3-13.7,25.3-8.9,39.1c0.9,2.5,0.2,5.2-1.6,7.1
		l-2.6,2.6c-2.7,2.7-7,2.7-9.7,0c-2.6-2.6-2.7-6.7-0.3-9.4c-4.5-17.7,0.4-36.1,13.4-49.1c9.4-9.4,22-14.8,35.4-15.1
		c1.6,0,3.7,0.7,5,2L185.4,15c2.7,2.7,2.7,7,0,9.7L166,44.1l14.6,14.6L200,39.3c2.7-2.7,7-2.7,9.7,0l10.6,10.6c1.3,1.3,2,3.1,2,5
		c-0.3,13.4-5.6,26-15.1,35.4C197.5,100.1,184.5,105.4,171.1,105.4z"/>
</g>
</svg>
