<?xml version="1.0" encoding="utf-8"?>
<!-- Generator: Adobe Illustrator 21.0.0, SVG Export Plug-In . SVG Version: 6.00 Build 0)  -->
<svg version="1.1" id="Layer_1" xmlns="http://www.w3.org/2000/svg" xmlns:xlink="http://www.w3.org/1999/xlink" x="0px" y="0px"
	 viewBox="0 0 110.7 79" style="enable-background:new 0 0 110.7 79;" xml:space="preserve">
<style type="text/css">
	.st2{fill:#26C6A3;}
</style>
<g>
	<path class="st2" d="M14.7,24.8C6.6,24.8,0,31.4,0,39.5c0,8.1,6.6,14.7,14.7,14.7c7.6,0,13.9-5.8,14.6-13.2h4.8v-3h-4.8
		C28.6,30.6,22.3,24.8,14.7,24.8z M14.7,51.2C8.2,51.2,3,46,3,39.5C3,33,8.2,27.8,14.7,27.8c6.5,0,11.7,5.2,11.7,11.7
		C26.4,46,21.2,51.2,14.7,51.2z"/>
	<path class="st2" d="M96,24.8c-7.6,0-13.9,5.8-14.6,13.2h-4v3h4c0.8,7.4,7,13.2,14.6,13.2c8.1,0,14.7-6.6,14.7-14.7
		C110.7,31.4,104.1,24.8,96,24.8z M96,51.2c-6.5,0-11.7-5.2-11.7-11.7c0-6.5,5.2-11.7,11.7-11.7s11.7,5.2,11.7,11.7
		C107.7,46,102.5,51.2,96,51.2z"/>
	<rect x="38" y="38" class="st2" width="5.9" height="3"/>
	<rect x="57.7" y="38" class="st2" width="5.9" height="3"/>
	<rect x="67.5" y="38" class="st2" width="5.9" height="3"/>
	<rect x="47.9" y="38" class="st2" width="5.9" height="3"/>
</g>
</svg>
