<?xml version="1.0" encoding="utf-8"?>
<!-- Generator: Adobe Illustrator 21.0.0, SVG Export Plug-In . SVG Version: 6.00 Build 0)  -->
<svg version="1.1" id="Layer_1" xmlns="http://www.w3.org/2000/svg" xmlns:xlink="http://www.w3.org/1999/xlink" x="0px" y="0px"
	 viewBox="0 0 512 512" style="enable-background:new 0 0 512 512;" xml:space="preserve">
<style type="text/css">
	.st0{fill:#282930;}
</style>
<g>
	<g>
		<path class="st0" d="M438.2,247.5l-9.4-37.7l18.3-92.5c2.4-12.3-5.6-24.3-17.9-26.8l-31.9-6.3l-12.7-50.7
			c-2.4-9.7-12.4-15.7-22.1-13.2L235.4,52.1L86.9,22.7c-12.3-2.4-24.3,5.6-26.8,17.9L48.6,98.9L24,105c-9.7,2.4-15.7,12.4-13.2,22.1
			l18,71.8l-18.3,92.5c-1.2,5.9,0,12,3.4,17.1s8.5,8.5,14.5,9.7l31.9,6.3L73,375.2c2.4,9.7,12.4,15.7,22.1,13.2l127.2-31.8
			l81.8,16.2c3,9.3,7.2,18.1,12.7,26.1l-62.3,62.3c-7.1,7.1-7.1,18.6,0,25.8c3.6,3.6,8.2,5.3,12.9,5.3s9.3-1.8,12.9-5.3l62.2-62.2
			c16.5,11.6,36.6,18.5,58.2,18.5c27.4-0.1,52.8-10.7,71.9-29.8c18.9-19,29.7-45.2,29.6-72C501.9,298.9,475.4,262.5,438.2,247.5z
			 M50.8,111L50.8,111L50.8,111L50.8,111z M30.1,309.3c-3.6-0.7-6.6-2.8-8.7-5.8s-2.8-6.7-2.1-10.2L69.1,42.4
			c1.5-7.4,8.7-12.2,16.1-10.8l342.3,67.8c7.4,1.5,12.2,8.7,10.8,16.1l-24,121.1c-4.8-0.7-9.4-1-14-1c-28.3,0.1-55,11.2-74.9,31.3
			c-20,20.1-30.9,46.8-30.8,75.1c0,6.6,0.7,13.3,2,20L30.1,309.3z M446.6,387.7c-12.2,12.2-28.7,19.1-45.9,19.1c-0.1,0-0.1,0-0.2,0
			c-23.2,0-43.5-12.2-55-30.4c-6.3-10-10-21.8-10.1-34.5c-0.1-36,29-65.2,64.9-65.3c0.1,0,0.1,0,0.2,0c3.5,0,6.9,0.4,10.2,0.9
			c13.2,2.1,25.1,8.1,34.4,16.9c12.5,11.8,20.4,28.5,20.4,47.1C465.6,358.8,458.8,375.4,446.6,387.7z"/>
		<path class="st0" d="M249,106.8l-95.9,32.4l-19.9,99.3l76,66.9L305,273l19.9-99.3L249,106.8z M311.1,173.6l-81,27.3l-64.2-56.5
			l81-27.3L311.1,173.6z M159.9,151.2l64.1,56.5l-16.8,83.8L143.1,235L159.9,151.2z M297.2,266l-81,27.3l16.8-83.8l81-27.3
			L297.2,266z"/>
	</g>
</g>
</svg>
