<svg id="Layer_1" data-name="Layer 1" xmlns="http://www.w3.org/2000/svg" viewBox="0 0 480.6 486.88"><defs><style>.cls-1{fill:#282930;}</style></defs><title>favicon</title><polygon class="cls-1" points="314.9 140.57 480.6 140.57 356.52 4.32 314.9 140.57"/><polygon class="cls-1" points="141.35 339.64 39.27 307.83 0 105.23 141.35 339.64"/><polygon class="cls-1" points="49.87 318.04 230.88 473.53 148.42 348.67 49.87 318.04"/><polygon class="cls-1" points="304.3 144.89 151.17 339.64 0 91.88 304.3 144.89"/><polygon class="cls-1" points="167.27 329.43 308.62 150.78 322.76 215.96 167.27 329.43"/><polygon class="cls-1" points="159.41 352.99 246.19 486.88 348.67 442.51 159.41 352.99"/><polygon class="cls-1" points="157.45 345.92 322.76 222.63 353.38 436.62 157.45 345.92"/><polygon class="cls-1" points="314.9 147.24 329.04 211.24 475.89 147.24 314.9 147.24"/><polygon class="cls-1" points="331 229.31 356.92 426.02 383.62 310.19 331 229.31"/><polygon class="cls-1" points="308.23 138.21 353.38 0 9.03 85.99 308.23 138.21"/><polygon class="cls-1" points="330.22 218.7 386.37 304.3 479.81 150.78 330.22 218.7"/></svg>