<?xml version="1.0" encoding="utf-8"?>
<!-- Generator: Adobe Illustrator 19.2.0, SVG Export Plug-In . SVG Version: 6.00 Build 0)  -->
<svg version="1.1" id="Layer_1" xmlns="http://www.w3.org/2000/svg" xmlns:xlink="http://www.w3.org/1999/xlink" x="0px" y="0px"
	 viewBox="0 0 24.7 21" style="enable-background:new 0 0 24.7 21;" xml:space="preserve">
<style type="text/css">
	.st0{fill:#282930;}
</style>
<title>github</title>
<desc>Created with Sketch.</desc>
<path id="Fill-4" class="st0" d="M16.6,12.2c0.9,0,1.7,1,1.7,2.3c0,1.3-0.8,2.3-1.7,2.3c-0.9,0-1.7-1-1.7-2.3
	C14.9,13.2,15.7,12.2,16.6,12.2"/>
<path id="Fill-6" class="st0" d="M8.4,12.2c0.9,0,1.7,1,1.7,2.3c0,1.3-0.8,2.3-1.7,2.3c-0.9,0-1.7-1-1.7-2.3
	C6.7,13.2,7.5,12.2,8.4,12.2"/>
<g id="Group-3" transform="translate(0.000000, 0.072499)">
	<path id="Fill-1" class="st0" d="M19.5,17.8c-0.6,0.6-1.4,0.8-2.3,1c-1.6,0.4-3.2,0.5-4.8,0.4c-1.6,0.1-3.2,0-4.8-0.4
		c-1.2-0.3-2.2-0.7-2.9-1.7c-1.2-1.6-1.5-4.5,0.5-6.2c0.5-0.4,1-0.7,1.7-0.7c0.7,0,1.4-0.1,2.1-0.1c1.8,0,3.6,0.1,5.4,0.1
		c0.8,0,1.7-0.2,2.5-0.1c0.7,0,1.5,0.2,2.2,0.5c1.1,0.5,1.7,1.5,1.9,2.7C21.3,15,21,16.6,19.5,17.8 M22.5,5.3c0-1.1-0.2-2.2-0.4-3.2
		C22,1.7,21.8,1.3,21.7,1c-0.1-0.3-0.4-0.4-0.7-0.4c-0.2,0-0.3,0.1-0.5,0.1C19,1.3,17.5,2,16,2.9c-0.2,0.1-0.5,0.2-0.7,0.1
		c-0.6,0-1.1-0.2-1.7-0.2c-1.4-0.1-2.7,0-4.1,0.2C9.4,3.1,9.2,3.1,9,3C7.4,2,5.8,1.1,4,0.6c-0.3-0.1-0.6,0-0.6,0.1
		c0,0.1-0.1,0.1-0.1,0.2C3.1,1.6,2.8,2.3,2.7,3C2.6,3.8,2.5,4.7,2.5,5.5c0,0.5-0.1,0.8-0.4,1.2C1.2,8,0.7,9.4,0.7,11
		c0,1.3,0.2,2.6,0.6,3.9c0.6,2,1.8,3.4,3.7,4.4C6.4,20,8,20.3,9.7,20.4c1.5,0.1,3,0,4.5,0c1.5,0,3-0.1,4.4-0.6
		c1.4-0.5,2.7-1.2,3.7-2.4c1.4-1.7,1.8-3.7,1.9-5.9C24.4,9.9,24,8.4,23.1,7C22.7,6.5,22.4,6,22.5,5.3"/>
	<g id="Clip-2">
	</g>
</g>
</svg>
