<?xml version="1.0" encoding="UTF-8" standalone="no"?>
<svg width="99px" height="24px" viewBox="0 0 99 24" version="1.1" xmlns="http://www.w3.org/2000/svg" xmlns:xlink="http://www.w3.org/1999/xlink">
    <!-- Generator: Sketch 39.1 (31720) - http://www.bohemiancoding.com/sketch -->
    <title>svg2759</title>
    <desc>Created with Sketch.</desc>
    <defs></defs>
    <g id="Symbols" stroke="none" stroke-width="1" fill="none" fill-rule="evenodd">
        <g id="Footer" transform="translate(-588.000000, -146.000000)" fill="#D1D1D1">
            <g id="cc">
                <g transform="translate(588.000000, 146.000000)">
                    <g id="svg2759">
                        <path d="M20,4.2 C22.2,6.4 23.3,9.1 23.3,12.2 C23.3,15.4 22.2,18 20.1,20.2 C17.8,22.4 15.1,23.6 12,23.6 C8.9,23.6 6.3,22.5 4,20.3 C1.8,18.1 0.7,15.4 0.7,12.3 C0.7,9.2 1.8,6.5 4,4.3 C6.2,2.1 8.8,1 12,1 C15.1,0.9 17.8,2 20,4.2 L20,4.2 Z M5.5,5.7 C3.6,7.6 2.7,9.8 2.7,12.3 C2.7,14.8 3.6,17 5.5,18.8 C7.3,20.6 9.5,21.6 12,21.6 C14.5,21.6 16.7,20.7 18.6,18.8 C20.4,17.1 21.3,14.9 21.3,12.3 C21.3,9.7 20.4,7.5 18.6,5.7 C16.8,3.9 14.6,3 12,3 C9.4,3 7.3,3.9 5.5,5.7 L5.5,5.7 Z M10.4,11.1 C10.1,10.5 9.7,10.2 9.1,10.2 C8.1,10.2 7.6,10.9 7.6,12.2 C7.6,13.5 8.1,14.2 9.1,14.2 C9.8,14.2 10.2,13.9 10.5,13.2 L11.9,13.9 C11.2,15.1 10.2,15.7 8.9,15.7 C7.9,15.7 7.1,15.4 6.5,14.8 C5.9,14.2 5.6,13.3 5.6,12.2 C5.6,11.1 5.9,10.3 6.5,9.6 C7.1,9 7.9,8.6 8.9,8.6 C10.3,8.6 11.3,9.2 11.9,10.2 L10.4,11.1 L10.4,11.1 Z M16.9,11.1 C16.6,10.5 16.2,10.2 15.7,10.2 C14.7,10.2 14.2,10.9 14.2,12.2 C14.2,13.5 14.7,14.2 15.7,14.2 C16.4,14.2 16.8,13.9 17.1,13.2 L18.5,13.9 C17.8,15.1 16.9,15.7 15.5,15.7 C14.5,15.7 13.7,15.4 13.1,14.8 C12.5,14.2 12.2,13.3 12.2,12.2 C12.2,11.1 12.5,10.3 13.1,9.6 C13.7,9 14.5,8.6 15.5,8.6 C16.9,8.6 17.9,9.2 18.5,10.2 L16.9,11.1 L16.9,11.1 Z" id="path5708_5_"></path>
                        <g id="Group" transform="translate(25.000000, 0.000000)">
                            <path d="M15.1,9.1 C15.1,8.7 14.8,8.4 14.4,8.4 L9.7,8.4 C9.3,8.4 9,8.7 9,9.1 L9,13.8 L10.3,13.8 L10.3,19.4 L13.9,19.4 L13.9,13.8 L15.2,13.8 L15.2,9.1 L15.1,9.1 L15.1,9.1 Z" id="path132"></path>
                            <circle id="circle134" cx="12" cy="6.1" r="1.6"></circle>
                            <path d="M12,0.4 C8.8,0.4 6.1,1.5 3.8,3.8 C1.5,6.1 0.4,8.9 0.4,12 C0.4,15.2 1.5,17.9 3.8,20.2 C6.1,22.5 8.8,23.6 12,23.6 C15.2,23.6 18,22.5 20.3,20.2 C22.5,18 23.6,15.3 23.6,12.1 C23.6,8.9 22.5,6.1 20.2,3.9 C18,1.5 15.2,0.4 12,0.4 L12,0.4 Z M12,2.5 C14.6,2.5 16.9,3.4 18.7,5.3 C20.6,7.1 21.5,9.4 21.5,12 C21.5,14.7 20.6,16.9 18.8,18.6 C16.9,20.5 14.6,21.4 12,21.4 C9.4,21.4 7.2,20.5 5.3,18.6 C3.4,16.7 2.5,14.5 2.5,11.9 C2.5,9.3 3.4,7.1 5.3,5.2 C7.1,3.4 9.3,2.5 12,2.5 L12,2.5 Z" id="path136"></path>
                        </g>
                        <g id="Group" transform="translate(75.000000, 0.000000)">
                            <path d="M11.9,0.4 C8.7,0.4 6,1.5 3.7,3.8 C1.4,6.1 0.3,8.9 0.3,12 C0.3,15.1 1.4,17.9 3.7,20.2 C6,22.5 8.7,23.6 11.9,23.6 C15.1,23.6 17.9,22.4 20.2,20.2 C22.4,18 23.5,15.3 23.5,12.1 C23.5,8.9 22.4,6.1 20.1,3.9 C17.9,1.5 15.2,0.4 11.9,0.4 L11.9,0.4 Z M11.9,2.5 C14.5,2.5 16.8,3.4 18.6,5.3 C20.5,7.1 21.4,9.4 21.4,12 C21.4,14.7 20.5,16.9 18.7,18.6 C16.8,20.5 14.5,21.4 11.9,21.4 C9.3,21.4 7.1,20.5 5.2,18.6 C3.3,16.7 2.4,14.5 2.4,11.9 C2.4,9.3 3.3,7.1 5.2,5.2 C7.1,3.4 9.3,2.5 11.9,2.5 L11.9,2.5 Z" id="path6338_1_"></path>
                            <path d="M6.8,10.3 C7.3,7.4 9.3,5.8 11.9,5.8 C15.6,5.8 17.9,8.5 17.9,12.1 C17.9,15.6 15.5,18.3 11.9,18.3 C9.4,18.3 7.2,16.8 6.8,13.8 L9.7,13.8 C9.8,15.4 10.8,15.9 12.2,15.9 C13.8,15.9 14.9,14.4 14.9,12 C14.9,9.5 14,8.2 12.2,8.2 C10.9,8.2 9.8,8.7 9.6,10.3 L10.4,10.3 L8.1,12.6 L5.8,10.3 L6.8,10.3 L6.8,10.3 Z" id="path6340_1_"></path>
                        </g>
                        <path d="M61.9,0.4 C65.2,0.4 67.9,1.5 70.1,3.8 C72.3,6 73.5,8.8 73.5,12 C73.5,15.2 72.4,18 70.2,20.1 C67.9,22.4 65.1,23.5 61.9,23.5 C58.7,23.5 56,22.4 53.7,20.1 C51.4,17.8 50.3,15.1 50.3,11.9 C50.3,8.7 51.4,6 53.7,3.7 C56,1.5 58.7,0.4 61.9,0.4 L61.9,0.4 Z M53,8.9 C52.7,9.9 52.5,10.9 52.5,12 C52.5,14.6 53.4,16.8 55.3,18.7 C57.2,20.6 59.4,21.5 62,21.5 C64.6,21.5 66.8,20.6 68.8,18.7 C69.4,18.1 70,17.4 70.4,16.7 L66,14.8 C65.7,16.3 64.4,17.3 62.8,17.4 L62.8,19.2 L61.5,19.2 L61.5,17.4 C60.2,17.4 58.9,16.9 58,16 L59.6,14.4 C60.4,15.1 61.1,15.4 62.2,15.4 C62.9,15.4 63.6,15.1 63.6,14.2 C63.6,13.9 63.5,13.7 63.3,13.5 L62.2,13 L60.8,12.4 C60.1,12.1 59.5,11.8 59,11.6 L53,8.9 L53,8.9 Z M62,2.5 C59.4,2.5 57.1,3.4 55.3,5.3 C54.8,5.8 54.4,6.3 54,6.9 L58.4,8.9 C58.8,7.7 60,6.9 61.4,6.8 L61.4,5 L62.7,5 L62.7,6.8 C63.6,6.8 64.6,7.1 65.6,7.9 L64.1,9.5 C63.5,9.1 62.8,8.8 62.1,8.8 C61.5,8.8 60.7,9 60.7,9.7 C60.7,9.8 60.7,9.9 60.8,10 L62.3,10.7 L63.3,11.1 C63.9,11.4 64.6,11.7 65.2,11.9 L71.1,14.5 C71.3,13.7 71.4,12.9 71.4,12 C71.4,9.4 70.5,7.1 68.6,5.3 C66.8,3.4 64.6,2.5 62,2.5 L62,2.5 Z" id="path6365_1_"></path>
                    </g>
                </g>
            </g>
        </g>
    </g>
</svg>