<?xml version="1.0" encoding="utf-8"?>
<!-- Generator: Adobe Illustrator 21.0.0, SVG Export Plug-In . SVG Version: 6.00 Build 0)  -->
<svg version="1.1" id="Layer_1" xmlns="http://www.w3.org/2000/svg" xmlns:xlink="http://www.w3.org/1999/xlink" x="0px" y="0px"
	 viewBox="0 0 45 12.6" style="enable-background:new 0 0 45 12.6;" xml:space="preserve">
<style type="text/css">
	.st0{fill:#D1D1D1;}
</style>
<title>svg2759</title>
<desc>Created with Sketch.</desc>
<g>
	<path class="st0" d="M26.1,8.3c1.2,0,2.3-0.1,3.4-0.6c1-0.5,1.7-1.3,2-2.4c0.2-0.8,0.2-1.7-0.1-2.5c-0.3-1-1-1.7-2-2.1
		c-0.6-0.3-1.2-0.4-1.9-0.4c-1.7,0-3.4,0-5,0c-0.1,0-0.2,0-0.2,0.2c0,3.8,0,7.7,0,11.5c0,0.1,0,0.1,0,0.2c0.7,0,1.4,0,2.2,0
		c0-3.3,0-6.7,0-10c0.1,0,0.1,0,0.2,0c0.8,0,1.7,0,2.5,0c0.2,0,0.5,0,0.7,0.1c0.8,0.1,1.4,0.6,1.5,1.5c0,0.3,0.1,0.6,0,0.8
		c-0.1,1-0.6,1.6-1.5,1.8c-0.5,0.1-1,0.1-1.5,0.1c-0.1,0-0.2,0-0.2,0C26.1,7.1,26.1,7.7,26.1,8.3z M42.6,12.2c0.7,0,1.4,0,2.1,0
		c0-4,0-7.9,0-11.8c-0.7,0-1.4,0-2.1,0C42.6,4.3,42.6,8.2,42.6,12.2z"/>
	<path class="st0" d="M14.5,12.4c-0.3-0.1-0.7-0.1-1-0.2c-0.9-0.2-1.8-0.6-2.4-1.3c-0.6-0.7-0.9-1.5-1-2.4c0-0.3,0-0.6,0-0.8
		c0-2.5,0-4.9,0-7.4c0.7,0,1.5,0,2.2,0c0,2.4,0,4.8,0,7.3c0,0.4,0,0.9,0.2,1.3c0.2,0.7,0.7,1.2,1.5,1.4c0.7,0.2,1.4,0.2,2.2,0.1
		c0.9-0.2,1.4-0.8,1.7-1.6c0.1-0.5,0.2-0.9,0.2-1.4c0-2.3,0-4.6,0-6.8c0-0.1,0-0.1,0-0.2c0.7,0,1.4,0,2.1,0c0,0,0,0.1,0,0.1
		c0,2.4,0,4.8,0,7.1c0,1-0.2,2-0.8,2.8c-0.6,1-1.6,1.5-2.7,1.8c-0.3,0.1-0.6,0.1-0.9,0.2C15.2,12.4,14.9,12.4,14.5,12.4z"/>
	<path class="st0" d="M3.1,12.4c-0.4-0.1-0.8-0.1-1.1-0.2c-0.6-0.1-1.3-0.3-1.8-0.7c0.2-0.6,0.4-1.1,0.7-1.7C1,9.9,1,9.9,1.1,9.9
		c1,0.4,2.1,0.6,3.2,0.5c0.4,0,0.7-0.1,1.1-0.3c0.9-0.5,0.8-1.5,0.3-2.1C5.4,7.7,5,7.5,4.6,7.3C4,7,3.4,6.8,2.8,6.5
		C2.2,6.2,1.7,5.8,1.3,5.3c-0.7-0.8-0.9-2-0.6-3c0.4-1.1,1.4-1.8,2.5-2c1.5-0.3,3-0.1,4.3,0.6c0,0,0,0,0,0C7.4,1.5,7.2,2,7,2.5
		c-0.2,0-0.3-0.1-0.4-0.1C5.8,2.1,4.9,2,4.1,2.1c-0.3,0-0.5,0.1-0.8,0.2C2.6,2.5,2.4,3.3,2.9,3.9c0.2,0.2,0.4,0.4,0.7,0.6
		C4,4.7,4.5,5,5,5.2c0.6,0.3,1.3,0.6,1.8,1c1,0.8,1.6,2,1.4,3.3c-0.2,1.2-1,2-2.1,2.5c-0.6,0.2-1.2,0.3-1.8,0.4
		C4,12.4,3.5,12.4,3.1,12.4z"/>
	<path class="st0" d="M35.3,12.4c-0.4-0.1-0.7-0.1-1.1-0.2c-0.6-0.1-1.2-0.3-1.8-0.6c0,0-0.1,0-0.1-0.1c0.2-0.6,0.4-1.1,0.7-1.7
		c0.1,0,0.2,0.1,0.3,0.1c1,0.4,2.1,0.6,3.2,0.5c0.4,0,0.7-0.1,1.1-0.3c0.9-0.5,0.8-1.5,0.4-2c-0.4-0.4-0.8-0.6-1.3-0.8
		c-0.5-0.3-1.1-0.5-1.6-0.8c-0.6-0.3-1.2-0.7-1.6-1.2c-1-1.1-1-2.9-0.1-4c0.5-0.6,1.2-0.9,2-1.1c1.5-0.3,3-0.1,4.4,0.6
		c-0.2,0.5-0.4,1.1-0.6,1.6c-0.2-0.1-0.4-0.1-0.5-0.2c-0.8-0.3-1.6-0.4-2.4-0.3c-0.3,0-0.5,0.1-0.8,0.2c-0.7,0.3-0.9,1.1-0.4,1.7
		c0.2,0.2,0.4,0.4,0.7,0.5c0.6,0.3,1.2,0.6,1.8,0.9c0.6,0.3,1.2,0.6,1.7,1c1.7,1.4,1.6,4.4-0.8,5.5c-0.6,0.3-1.2,0.4-1.8,0.5
		c-0.1,0-0.1,0-0.2,0C36.2,12.4,35.8,12.4,35.3,12.4z"/>
	<path class="st0" d="M26.1,8.3c0-0.6,0-1.2,0-1.8c0.1,0,0.2,0,0.2,0c0.5,0,1,0,1.5-0.1c1-0.3,1.5-0.8,1.5-1.8c0-0.3,0-0.6,0-0.8
		c-0.1-0.8-0.6-1.3-1.5-1.5c-0.2,0-0.5-0.1-0.7-0.1c-0.8,0-1.7,0-2.5,0c0,0-0.1,0-0.2,0c0,3.3,0,6.7,0,10c-0.7,0-1.4,0-2.2,0
		c0-0.1,0-0.1,0-0.2c0-3.8,0-7.7,0-11.5c0-0.1,0-0.2,0.2-0.2l5,0c0.7,0,1.3,0.1,1.9,0.4c1,0.4,1.6,1.1,2,2.1
		c0.3,0.8,0.3,1.7,0.1,2.5c-0.3,1.1-1,1.9-2,2.4C28.4,8.3,27.3,8.4,26.1,8.3z"/>
	<path class="st0" d="M42.6,12.2c0-3.9,0-7.9,0-11.8c0.7,0,1.4,0,2.1,0c0,3.9,0,7.9,0,11.8C44,12.2,43.3,12.2,42.6,12.2z"/>
</g>
</svg>
