<?xml version="1.0" encoding="utf-8"?>
<!-- Generator: Adobe Illustrator 21.0.0, SVG Export Plug-In . SVG Version: 6.00 Build 0)  -->
<svg version="1.1" id="Layer_1" xmlns="http://www.w3.org/2000/svg" xmlns:xlink="http://www.w3.org/1999/xlink" x="0px" y="0px"
	 viewBox="0 0 44.7 13.8" style="enable-background:new 0 0 44.7 13.8;" xml:space="preserve">
<style type="text/css">
	.st0{fill:#D1D1D1;}
</style>
<title>svg2759</title>
<desc>Created with Sketch.</desc>
<g>
	<path class="st0" d="M44.7,7.8c-0.2,0-0.2,0-0.3,0c-0.1,0-0.2,0-0.4,0C44,8,43.9,8.2,43.7,8.7c-0.1,0.4-0.2,0.6-0.2,0.9h0
		c-0.1-0.4-0.1-0.5-0.3-0.9C43,8.3,42.9,8,42.8,7.8c-0.2,0-0.2,0-0.4,0c-0.1,0-0.3,0-0.4,0c0,0.2,0.1,0.3,0.6,1.4
		c0.3,0.5,0.4,0.8,0.4,1c-0.1,0.1-0.1,0.2-0.2,0.5c-0.1,0.2-0.2,0.4-0.3,0.6c0.2,0,0.2,0,0.4,0c0.1,0,0.3,0,0.3,0
		c0.1-0.3,0.2-0.6,0.5-1.4C44.4,8.5,44.7,8,44.7,7.8 M42,8.4c0-0.1,0-0.2,0-0.3c0-0.1,0-0.2,0-0.3c-0.1,0-0.6,0-0.7,0l0,0
		c0-0.2,0-0.4,0-0.6c-0.2,0-0.4,0.1-0.6,0.1c0,0.1,0,0.4,0,0.5l0,0c-0.1,0-0.4,0-0.6,0c0,0.1,0,0.2,0,0.3c0,0.1,0,0.2,0,0.3
		c0.1,0,0.4,0,0.5-0.1l0,0c0,0.3-0.1,0.8-0.1,1.1c0,0.6,0.2,0.9,0.8,0.9c0.2,0,0.4,0,0.6-0.1c0-0.1,0-0.2,0-0.3c0-0.1,0-0.2,0-0.3
		c-0.1,0-0.2,0-0.3,0c-0.4,0-0.4-0.1-0.4-0.5c0-0.3,0-0.7-0.1-0.9l0,0C41.4,8.4,41.7,8.4,42,8.4 M39.3,8.9c-0.2,0-0.4,0-0.5,0
		c-0.2,0-0.4,0-0.6,0c0-0.4,0.2-0.6,0.6-0.6C39.1,8.3,39.3,8.4,39.3,8.9 M39.9,9.3V9c0-1-0.4-1.4-1.1-1.4c-0.7,0-1.2,0.6-1.2,1.3
		c0,0.8,0.5,1.3,1.3,1.3c0.4,0,0.7-0.1,0.9-0.2c0-0.2,0-0.4,0-0.5c-0.2,0.1-0.5,0.1-0.8,0.1c-0.4,0-0.7-0.2-0.7-0.5
		c0.1,0,0.3,0,0.5,0H39.9z M37,7.8c-0.1,0-0.2,0-0.4,0c-0.1,0-0.2,0-0.3,0c0,0.4,0,0.9,0,1.3c0,0.4,0,0.8,0,1.2c0.1,0,0.2,0,0.3,0
		c0.1,0,0.2,0,0.3,0c0-0.4,0-0.9,0-1.2C36.9,8.6,37,8.2,37,7.8 M37,7.3c0-0.1,0-0.2,0-0.3c0-0.1,0-0.2,0-0.3c-0.1,0-0.2,0-0.4,0
		c-0.2,0-0.3,0-0.4,0c0,0.1,0,0.2,0,0.3c0,0.1,0,0.2,0,0.3c0.1,0,0.2,0,0.4,0C36.8,7.3,36.9,7.3,37,7.3 M35.8,8
		c-0.2-0.2-0.4-0.3-0.7-0.3c-0.8,0-1.3,0.6-1.3,1.3c0,0.8,0.5,1.3,1.3,1.3c0.3,0,0.5-0.1,0.7-0.3c0-0.2-0.1-0.4-0.1-0.6
		c-0.2,0.1-0.4,0.2-0.6,0.2c-0.5,0-0.7-0.3-0.7-0.7c0-0.4,0.3-0.7,0.7-0.7c0.3,0,0.5,0.1,0.6,0.2C35.7,8.3,35.8,8.1,35.8,8 M32.7,9
		c0,0.4-0.2,0.8-0.6,0.8c-0.4,0-0.6-0.3-0.6-0.8c0-0.5,0.2-0.7,0.7-0.7C32.5,8.3,32.7,8.5,32.7,9 M33.3,9c0-0.8-0.5-1.3-1.3-1.3
		c-0.7,0-1.3,0.5-1.3,1.3c0,0.8,0.5,1.4,1.3,1.4C32.8,10.4,33.3,9.8,33.3,9 M30.4,9.5c0-0.4-0.2-0.6-0.7-0.7
		c-0.5-0.1-0.5-0.1-0.5-0.3c0-0.2,0.1-0.3,0.5-0.3c0.2,0,0.5,0,0.6,0.1c0-0.2,0-0.4,0.1-0.5c-0.2-0.1-0.4-0.2-0.7-0.2
		c-0.7,0-1.1,0.3-1.1,0.8c0,0.4,0.2,0.6,0.7,0.7c0.4,0.1,0.5,0.1,0.5,0.3c0,0.2-0.1,0.3-0.4,0.3c-0.2,0-0.4,0-0.6-0.1
		c0,0.2,0,0.4,0,0.5c0.2,0.1,0.4,0.2,0.7,0.2C30,10.3,30.4,10,30.4,9.5 M26.4,8.5c0,0.1,0,0.3,0,0.5c0,0.2,0,0.3,0,0.4
		c-0.1,0.1-0.2,0.2-0.5,0.2c-0.4,0-0.6-0.2-0.6-0.6c0-0.4,0.2-0.6,0.6-0.6C26.1,8.3,26.3,8.4,26.4,8.5 M27,7.8c-0.1,0-0.2,0-0.2,0
		c-0.1,0-0.2,0-0.2,0c0,0.1,0,0.2-0.1,0.3l0,0c-0.1-0.2-0.3-0.4-0.7-0.4c-0.7,0-1.1,0.5-1.1,1.2c0,0.7,0.5,1.2,1.1,1.2
		c0.3,0,0.5-0.2,0.6-0.4l0,0c0,0,0,0.1,0,0.2v0.1c0,0.4-0.2,0.6-0.7,0.6c-0.2,0-0.4,0-0.5-0.1c0,0.2,0,0.4,0,0.5
		c0.2,0.1,0.4,0.1,0.6,0.1c0.7,0,1.2-0.4,1.2-1.3v-1C27,8.5,27,8.2,27,7.8 M23.5,9.6c-0.1,0.1-0.2,0.2-0.5,0.2
		c-0.3,0-0.4-0.1-0.4-0.3c0-0.2,0.1-0.3,0.5-0.3c0.2,0,0.3,0,0.4,0V9.6z M24.2,10.3c0-0.2-0.1-0.5-0.1-0.7V8.7c0-0.7-0.3-1-1.1-1
		c-0.4,0-0.7,0.1-0.9,0.4c0,0.1,0.1,0.3,0.1,0.5l0,0c0.1-0.2,0.4-0.3,0.8-0.3c0.4,0,0.5,0.1,0.5,0.4v0.1h-0.1
		c-0.9,0-1.3,0.2-1.3,0.8c0,0.5,0.3,0.8,0.8,0.8c0.4,0,0.6-0.2,0.7-0.5h0c0,0.1,0,0.3,0.1,0.4c0.1,0,0.2,0,0.3,0
		C24,10.3,24.1,10.3,24.2,10.3 M21,9.6c-0.1,0.1-0.2,0.2-0.5,0.2c-0.3,0-0.4-0.1-0.4-0.3c0-0.2,0.1-0.3,0.5-0.3c0.2,0,0.3,0,0.4,0
		V9.6z M21.6,10.3c0-0.2-0.1-0.5-0.1-0.7V8.7c0-0.7-0.3-1-1.1-1c-0.4,0-0.7,0.1-0.9,0.4c0,0.1,0.1,0.3,0.1,0.5l0,0
		c0.1-0.2,0.4-0.3,0.8-0.3c0.4,0,0.5,0.1,0.5,0.4v0.1h-0.1c-0.9,0-1.3,0.2-1.3,0.8c0,0.5,0.3,0.8,0.8,0.8c0.4,0,0.6-0.2,0.7-0.5h0
		c0,0.1,0,0.3,0.1,0.4c0.1,0,0.2,0,0.3,0C21.5,10.3,21.6,10.3,21.6,10.3 M19.3,7.8c-0.1,0-0.2,0-0.3,0c-0.1,0-0.2,0-0.3,0
		c0,0.2-0.1,0.6-0.2,0.8c-0.1,0.3-0.2,0.7-0.2,1h0c0-0.3-0.2-0.7-0.3-1.1c-0.1-0.4-0.2-0.6-0.3-0.8c-0.1,0-0.2,0-0.3,0s-0.2,0-0.3,0
		c-0.1,0.1-0.1,0.4-0.3,0.8c-0.1,0.4-0.2,0.8-0.3,1.1h0c0-0.3-0.1-0.6-0.2-1c-0.1-0.3-0.2-0.6-0.2-0.8c-0.1,0-0.2,0-0.3,0
		c-0.1,0-0.2,0-0.3,0c0,0.1,0.1,0.5,0.4,1.4c0.2,0.5,0.3,0.8,0.3,1.1c0.1,0,0.2,0,0.3,0c0.1,0,0.2,0,0.3,0c0-0.1,0.2-0.6,0.4-1
		c0.1-0.3,0.2-0.6,0.2-0.9h0c0,0.3,0.1,0.6,0.2,0.9c0.1,0.4,0.3,0.9,0.4,1c0,0,0.2,0,0.3,0c0.1,0,0.3,0,0.3,0
		c0.1-0.3,0.2-0.6,0.3-1.1C19.2,8.2,19.3,7.8,19.3,7.8"/>
	<path class="st0" d="M6.9,0C3.1,0,0,3.1,0,6.9c0,3.8,3.1,6.9,6.9,6.9c3.8,0,6.9-3.1,6.9-6.9C13.8,3.1,10.7,0,6.9,0z M8.3,10.1
		l0-2.2c0-0.8-0.6-1.5-1.4-1.5c-0.8,0-1.4,0.7-1.4,1.5v2.2H2.9l0.4-4.3l1.3-2.6l0.5,2.2l1.7-2.9l1.8,2.9l0.5-2.2l1.3,2.6l0.4,4.3
		H8.3z"/>
</g>
</svg>
