<?xml version="1.0" encoding="utf-8"?>
<!-- Generator: Adobe Illustrator 21.0.0, SVG Export Plug-In . SVG Version: 6.00 Build 0)  -->
<svg version="1.1" id="Layer_1" xmlns="http://www.w3.org/2000/svg" xmlns:xlink="http://www.w3.org/1999/xlink" x="0px" y="0px"
	 viewBox="0 0 512 416" style="enable-background:new 0 0 512 416;" xml:space="preserve">
<style type="text/css">
	.st0{fill:#282930;}
</style>
<g>
	<path class="st0" d="M503.6,222.8c-2.5-4.9-6.8-11.1-11.7-17.9c-8-11.1-24.1-34-22.2-40.1c3.7-13.6,1.2-22.2-2.5-33.3
		c-1.2-4.9-3.1-9.9-4.9-16.7C445.6,44.4,396.8,4.3,328.9,4.3l0,0c-28.4,0-52.5,4.9-72.8,12.3c-20.4-8-44.4-12.3-72.8-12.3l0,0
		c-68.5,0-117.3,40.1-133.3,110.5c-1.9,6.8-3.1,12.3-4.9,16.7c-3.7,11.1-6.2,19.8-2.5,33.3c1.9,6.2-14.2,29-22.2,40.1
		c-4.9,6.8-9.3,13-11.7,17.9c-3.1,4.9-3.1,11.1-1.2,16.7c2.5,5.6,6.8,9.9,13,11.7c0.6,0,0.6,0,1.2,0l13.6,1.2c0.6,0,0.6,0,0.6,0.6
		c0,0,0,0.6,0,1.2l-5.6,10.5c-3.1,6.2-1.9,13,3.7,17.9l1.9,1.2l-0.6,1.2c-3.1,6.2-1.2,13.6,4.3,17.9l3.7,3.1
		c1.9,1.9,1.9,3.1,1.2,4.9l-2.5,12.3c-1.9,9.3,0.6,19.1,6.8,26.5c6.2,7.4,15.4,11.1,24.7,11.1l60.5-1.2c0.6,0,1.2,0.6,1.9,1.2
		c3.7,8,9.9,22.2,15.4,31.5c3.7,6.2,9.3,11.1,15.4,13.6c9.9,4.3,19.1,5.6,28.4,5.6c22.8,0,43.8-11.1,61.1-25.9
		c17.3,14.8,38.3,25.9,61.1,25.9c9.3,0,18.5-1.9,28.4-5.6c6.2-2.5,11.7-7.4,15.4-13.6c5.6-9.3,12.3-23.5,15.4-31.5
		c0-0.6,0.6-0.6,1.9-1.2l59.9,1.2c9.9,0.6,18.5-3.7,25.3-11.1c6.2-7.4,8.6-17.3,6.8-26.5l-2.5-12.3c-0.6-1.9,0-3.1,1.2-4.9l3.7-3.1
		c5.6-4.3,7.4-11.7,4.3-17.9l-0.6-1.2l1.9-1.9c4.9-4.3,6.2-11.7,3.1-17.9l-5.6-10.5c0-0.6,0-0.6,0-1.2c0-0.6,0.6-0.6,0.6-0.6
		l13.6-1.2c0.6,0,0.6,0,1.2,0c5.6-1.9,10.5-6.2,13-11.7C506.7,234.5,506.7,228.4,503.6,222.8z M171.5,394.4
		c-3.7-1.9-6.8-4.3-9.3-8.6c-4.9-8.6-11.1-22.2-14.8-30.2c-2.5-4.9-7.4-8.6-13-8.6l0,0l-60.5,1.2c-6.2,0-11.1-2.5-15.4-6.8
		c-3.7-4.3-5.6-10.5-4.3-16.1l2.5-12.3c1.2-8-1.9-13-4.3-16.1c0-0.6-0.6-0.6-1.2-0.6l-4.3-3.1c-0.6-0.6-1.2-1.9-0.6-2.5l2.5-5.6
		c1.2-2.5,0.6-5.6-1.9-7.4l-5.6-4.3c-0.6-0.6-1.2-1.9-0.6-3.1l5.6-10.5c1.9-3.7,1.9-8.6,0-12.3c-1.9-3.7-6.2-6.2-10.5-6.8l-13-1.2
		c-1.9-0.6-3.7-1.9-4.3-4.3c-0.6-1.9-0.6-4.3,0.6-6.2c2.5-4.3,6.8-10.5,11.1-17.3c16.7-23.5,27.2-40.1,23.5-50.6
		c-3.1-9.9-1.2-15.4,2.5-25.9c1.9-4.9,3.7-10.5,4.9-17.9C77,53.7,121.5,16.6,183.2,16.6l0,0c21,0,39.5,3.1,56.2,7.4
		c-37,19.1-59.3,49.4-72.2,75.9c-25.9,53.1-30.9,129.6,32.1,184.6c8,6.8,4.9,22.2,3.1,29c-1.2,4.9,0,9.9,3.1,14.2
		c1.2,1.9,3.1,3.7,4.3,6.2c7.4,10.5,20.4,27.8,37,43.8C225.8,395.1,199.9,406.2,171.5,394.4z M297.4,316.7c0.6,1.2,0,2.5-0.6,3.7
		c-1.2,1.9-3.1,3.7-4.9,6.8c-8,11.1-20.4,27.8-35.8,42.6c-15.4-14.8-27.8-32.1-35.8-42.6c-1.9-2.5-3.7-4.9-4.9-6.8
		c-0.6-1.2-1.2-2.5-0.6-3.7c2.5-10.5,5.6-30.2-6.8-41.4c-58-50.6-53.1-121-29-169.8c13-27.2,36.4-58,77.2-75.3
		c40.7,17.3,64.2,48.2,77.8,75.3c23.5,48.8,28.4,119.1-29,169.8C291.9,286.4,294.9,305.5,297.4,316.7z M493.1,235.2
		c-0.6,1.9-2.5,3.7-4.3,4.3l-13,1.2c-4.3,0.6-8,3.1-10.5,6.8c-1.9,3.7-2.5,8.6,0,12.3l5.6,10.5c0.6,1.2,0,2.5,0,2.5l-5.6,4.3
		c-2.5,1.9-3.1,4.9-1.9,7.4l2.5,5.6c0.6,0.6,0,1.9-0.6,2.5l-4.3,3.1c-0.6,0-0.6,0.6-1.2,0.6c-2.5,3.1-6.2,8-4.3,16.1l2.5,12.3
		c1.2,5.6-0.6,11.7-4.3,16.1c-3.7,4.3-9.3,6.8-15.4,6.8l-60.5-1.2l0,0c-5.6,0-10.5,3.1-13,8.6c-3.1,7.4-9.9,21.6-14.8,30.2
		c-2.5,3.7-5.6,6.8-9.3,8.6c-28.4,11.7-54.3,0.6-75.3-16.7c16.7-15.4,29-33.3,37-43.8c1.9-2.5,3.1-4.3,4.3-6.2
		c3.1-4.3,4.3-9.3,3.1-14.2c-1.2-4.9-4.9-21.6,3.1-29c63-54.9,58-131.5,32.1-184.6c-13-26.5-35.2-56.8-72.2-75.9
		c16.1-4.9,34.6-7.4,56.2-7.4l0,0c62.4,0,106.2,37,121.6,100.6c1.9,7.4,3.7,13,4.9,17.9c3.1,10.5,4.9,16.1,2.5,25.9
		c-3.1,11.1,7.4,27.2,23.5,50.6c4.3,6.8,8.6,13,11.1,17.3C493.7,230.8,493.7,233.3,493.1,235.2z"/>
	<path class="st0" d="M269.6,96.9h-28.4c-10.5,0-18.5,8.6-18.5,18.5v14.8v116.1c0,1.9,0.6,3.1,1.9,4.3l26.5,27.2
		c1.2,1.2,2.5,1.9,4.3,1.9s3.1-0.6,4.3-1.9l26.5-27.2c1.2-1.2,1.9-2.5,1.9-4.3V130.2v-14.8C288.8,104.9,280.1,96.9,269.6,96.9z
		 M235.1,240.1V136.4h40.7v103.7H235.1z M235.1,115.4c0-3.7,3.1-6.2,6.2-6.2h28.4c3.7,0,6.2,3.1,6.2,6.2v8.6h-40.7V115.4z
		 M255.4,264.8l-11.7-12.3h24.1L255.4,264.8z"/>
</g>
</svg>
